<svg width="9" height="9" viewBox="0 0 9 9" fill="none" xmlns="http://www.w3.org/2000/svg">
<path d="M7.35949 0.848633C7.59656 0.848633 7.82392 0.942809 7.99155 1.11044C8.15919 1.27808 8.25336 1.50544 8.25336 1.74251V7.99967C8.25336 8.23674 8.15919 8.4641 7.99155 8.63174C7.82392 8.79937 7.59656 8.89355 7.35949 8.89355H1.10233C0.865258 8.89355 0.637896 8.79937 0.470261 8.63174C0.302627 8.4641 0.20845 8.23674 0.20845 7.99967V1.74251C0.20845 1.50544 0.302627 1.27808 0.470261 1.11044C0.637896 0.942809 0.865258 0.848633 1.10233 0.848633H7.35949ZM7.13602 7.7762V5.40742C7.13602 5.02099 6.98251 4.65039 6.70926 4.37715C6.43602 4.1039 6.06542 3.95039 5.67899 3.95039C5.29909 3.95039 4.85662 4.1828 4.64209 4.53142V4.03531H3.39513V7.7762H4.64209V5.57278C4.64209 5.22864 4.91919 4.94707 5.26334 4.94707C5.42929 4.94707 5.58844 5.01299 5.70579 5.13034C5.82313 5.24768 5.88905 5.40684 5.88905 5.57278V7.7762H7.13602ZM1.94258 3.33362C2.14172 3.33362 2.3327 3.25451 2.47351 3.1137C2.61433 2.97288 2.69344 2.7819 2.69344 2.58276C2.69344 2.1671 2.35823 1.82743 1.94258 1.82743C1.74225 1.82743 1.55013 1.90701 1.40848 2.04866C1.26683 2.19031 1.18725 2.38243 1.18725 2.58276C1.18725 2.99841 1.52692 3.33362 1.94258 3.33362ZM2.56382 7.7762V4.03531H1.3258V7.7762H2.56382Z" fill="#0E76A8"/>
</svg>
