<svg width="9" height="9" viewBox="0 0 9 9" fill="none" xmlns="http://www.w3.org/2000/svg">
<path d="M2.96938 0.848633H6.39296C7.69718 0.848633 8.75685 1.90831 8.75685 3.21253V6.63611C8.75685 7.26305 8.5078 7.86432 8.06449 8.30763C7.62117 8.75095 7.0199 9 6.39296 9H2.96938C1.66516 9 0.605484 7.94033 0.605484 6.63611V3.21253C0.605484 2.58559 0.854537 1.98432 1.29785 1.541C1.74117 1.09769 2.34244 0.848633 2.96938 0.848633ZM2.88787 1.66377C2.49873 1.66377 2.12553 1.81835 1.85037 2.09352C1.57521 2.36868 1.42062 2.74188 1.42062 3.13102V6.71762C1.42062 7.52868 2.07681 8.18487 2.88787 8.18487H6.47447C6.86361 8.18487 7.23681 8.03028 7.51197 7.75512C7.78713 7.47996 7.94172 7.10676 7.94172 6.71762V3.13102C7.94172 2.31996 7.28553 1.66377 6.47447 1.66377H2.88787ZM6.8209 2.27512C6.95602 2.27512 7.08561 2.3288 7.18115 2.42434C7.27669 2.51988 7.33036 2.64947 7.33036 2.78458C7.33036 2.9197 7.27669 3.04928 7.18115 3.14483C7.08561 3.24037 6.95602 3.29404 6.8209 3.29404C6.68579 3.29404 6.5562 3.24037 6.46066 3.14483C6.36512 3.04928 6.31144 2.9197 6.31144 2.78458C6.31144 2.64947 6.36512 2.51988 6.46066 2.42434C6.5562 2.3288 6.68579 2.27512 6.8209 2.27512ZM4.68117 2.88648C5.22164 2.88648 5.73997 3.10118 6.12214 3.48335C6.50431 3.86552 6.71901 4.38385 6.71901 4.92432C6.71901 5.46479 6.50431 5.98312 6.12214 6.36529C5.73997 6.74746 5.22164 6.96216 4.68117 6.96216C4.1407 6.96216 3.62237 6.74746 3.2402 6.36529C2.85803 5.98312 2.64333 5.46479 2.64333 4.92432C2.64333 4.38385 2.85803 3.86552 3.2402 3.48335C3.62237 3.10118 4.1407 2.88648 4.68117 2.88648ZM4.68117 3.70161C4.35689 3.70161 4.04589 3.83043 3.81659 4.05973C3.58728 4.28904 3.45846 4.60004 3.45846 4.92432C3.45846 5.2486 3.58728 5.5596 3.81659 5.7889C4.04589 6.0182 4.35689 6.14702 4.68117 6.14702C5.00545 6.14702 5.31645 6.0182 5.54575 5.7889C5.77505 5.5596 5.90387 5.2486 5.90387 4.92432C5.90387 4.60004 5.77505 4.28904 5.54575 4.05973C5.31645 3.83043 5.00545 3.70161 4.68117 3.70161Z" fill="#F75093"/>
</svg>
