<svg width="10" height="9" viewBox="0 0 10 9" fill="none" xmlns="http://www.w3.org/2000/svg">
<path d="M9.96279 1.80762C9.59609 1.97544 9.20081 2.08572 8.79125 2.13847C9.21034 1.88434 9.53418 1.48156 9.68657 0.997275C9.2913 1.23702 8.85316 1.40484 8.39122 1.50074C8.01499 1.08838 7.48638 0.848633 6.88632 0.848633C5.76718 0.848633 4.85281 1.76926 4.85281 2.90566C4.85281 3.06868 4.87186 3.22692 4.9052 3.37556C3.20981 3.28925 1.70015 2.46932 0.6953 1.22743C0.519094 1.52951 0.419085 1.88434 0.419085 2.25834C0.419085 2.97278 0.776259 3.60571 1.32869 3.96533C0.990564 3.96533 0.67625 3.86943 0.400035 3.72559C0.400035 3.72559 0.400035 3.72559 0.400035 3.73997C0.400035 4.73732 1.10486 5.57163 2.03828 5.75863C1.86683 5.80658 1.68586 5.83056 1.50013 5.83056C1.37155 5.83056 1.24297 5.81617 1.11915 5.7922C1.37631 6.60254 2.124 7.2067 3.02408 7.22109C2.32878 7.7773 1.44775 8.10335 0.485757 8.10335C0.323838 8.10335 0.161919 8.09376 0 8.07458C0.904842 8.65956 1.98113 9 3.13361 9C6.88632 9 8.94841 5.86412 8.94841 3.1454C8.94841 3.0543 8.94841 2.96799 8.94365 2.87689C9.34368 2.58919 9.68657 2.22478 9.96279 1.80762Z" fill="#309DF4"/>
</svg>
