<?xml version="1.0" encoding="utf-8"?>
<!-- Generator: Adobe Illustrator 24.3.0, SVG Export Plug-In . SVG Version: 6.00 Build 0)  -->
<svg version="1.1" id="Layer_1" xmlns="http://www.w3.org/2000/svg" xmlns:xlink="http://www.w3.org/1999/xlink" x="0px" y="0px"
	 viewBox="0 0 347.55 89.21" style="enable-background:new 0 0 347.55 89.21;" xml:space="preserve">
<style type="text/css">
	.st0{fill:#001641;}
	.st1{fill:#FFFFFF;}
	.st2{fill:#010101;}
	.st3{fill:#656768;}
</style>
<g>
	<g>
		<path d="M156.87,12.89h3.58v0.06l-14.68,20.91l15.85,22.08V56h-3.95l-13.94-19.73L129.8,56h-3.95v-0.06l15.85-22.08l-14.68-20.91
			v-0.06h3.64l13.07,18.44L156.87,12.89z"/>
		<path d="M196.52,25.54c0,10.18,0,20.29,0,30.47h-3.02v-6.48c-2.96,4.75-7.52,6.97-12.46,6.97c-8.51,0-15.48-6.41-15.48-15.73
			s6.97-15.6,15.48-15.6c4.93,0,9.93,2.28,12.46,7.03v-6.66H196.52z M168.59,40.77c0,7.65,5.55,12.77,12.46,12.77
			c16.96,0,16.96-25.47,0-25.47C174.14,28.06,168.59,33.12,168.59,40.77z"/>
		<path d="M249.87,56V37.75c0-5.86-3.95-9.99-9.74-9.99c-5.8,0-9.81,4.32-9.81,10.18V56h-3.02V37.93c0-5.86-4.01-10.11-9.81-10.11
			c-5.8,0-9.74,4.25-9.74,10.11V56h-3.02V25.54h2.84l0.06,5.06c2.1-4.01,5.98-5.67,9.93-5.67c4.63,0,9.5,2.1,11.29,7.52
			c1.85-5,6.6-7.52,11.29-7.52c7.46,0,12.77,5.24,12.77,12.83V56H249.87z"/>
		<path d="M267.07,16.35v9.19h10.36v2.53h-10.36v18.56c0,4.13,0.86,7.03,5.61,7.03c1.48,0,3.15-0.49,4.69-1.23l1.05,2.47
			c-1.91,0.93-3.82,1.54-5.74,1.54c-6.48,0-8.57-3.82-8.57-9.81V28.06h-6.48v-2.53h6.48v-8.88L267.07,16.35z"/>
		<path d="M313.69,25.54c0,10.18,0,20.29,0,30.47h-3.02v-6.48c-2.96,4.75-7.52,6.97-12.46,6.97c-8.51,0-15.48-6.41-15.48-15.73
			s6.97-15.6,15.48-15.6c4.93,0,9.93,2.28,12.46,7.03v-6.66H313.69z M285.76,40.77c0,7.65,5.55,12.77,12.46,12.77
			c16.96,0,16.96-25.47,0-25.47C291.31,28.06,285.76,33.12,285.76,40.77z"/>
		<path d="M347.55,51.74c-3.08,3.08-7.09,4.56-11.1,4.56c-8.57,0-15.66-5.92-15.66-15.54s6.85-15.54,15.66-15.54
			c4.01,0,8.02,1.54,11.1,4.56l-1.97,1.91c-2.47-2.47-5.86-3.64-9.13-3.64c-6.91,0-12.7,4.5-12.7,12.7c0,8.2,5.8,12.7,12.7,12.7
			c3.27,0,6.6-1.29,9.07-3.76L347.55,51.74z"/>
	</g>
	<g>
		<path d="M138.08,77.83c-1.68,1.68-3.92,2.53-6.13,2.53c-5.68,0-8.64-3.97-8.66-8.51c-0.05-4.5,2.89-8.71,8.66-8.71
			c2.21,0,4.45,0.84,6.13,2.53l-0.89,0.77c-1.44-1.44-3.34-2.14-5.24-2.14c-4.91,0-7.43,3.46-7.41,7.5
			c0.05,3.94,2.55,7.36,7.41,7.36c1.9,0,3.82-0.72,5.27-2.14L138.08,77.83z"/>
		<path d="M152.12,74.24c0-3.78,2.69-6.18,6.04-6.18s6.04,2.41,6.04,6.18s-2.69,6.09-6.04,6.09S152.12,78.02,152.12,74.24z
			 M163.04,74.24c0-3.08-2.19-5.07-4.88-5.07c-2.69,0-4.88,2-4.88,5.07s2.19,4.93,4.88,4.93C160.86,79.17,163.04,77.32,163.04,74.24
			z"/>
		<path d="M180.1,68.28v2.12c0.91-1.64,2.57-2.31,4.23-2.33c3.18,0,5.36,1.95,5.36,5.24v6.86h-1.18v-6.83
			c0-2.69-1.66-4.14-4.23-4.11c-2.45,0.02-4.16,1.88-4.16,4.33v6.61h-1.18V68.28H180.1z"/>
		<path d="M212.96,70.44c-1.2-1.06-2.38-1.25-3.7-1.25c-1.85-0.02-3.63,0.67-3.58,2.19c0.05,1.59,2.12,1.9,3.61,2.16
			c2.12,0.36,5.03,0.72,4.91,3.49c-0.07,2.62-2.79,3.32-4.88,3.32s-4.16-0.79-5.2-2.38l0.87-0.77c0.99,1.42,2.77,2.02,4.35,2.02
			c1.44,0,3.63-0.38,3.7-2.26c0.05-1.71-1.92-2.04-3.87-2.36c-2.31-0.38-4.59-0.82-4.62-3.2c-0.02-2.33,2.31-3.34,4.71-3.32
			c1.73,0,3.25,0.48,4.43,1.59L212.96,70.44z"/>
		<path d="M238.41,80.16v-2.14c-0.91,1.64-2.57,2.31-4.23,2.33c-3.17,0-5.36-1.95-5.36-5.24v-6.85h1.18v6.83
			c0,2.69,1.66,4.14,4.23,4.11c2.45-0.02,4.16-1.88,4.16-4.33v-6.61h1.18v11.91H238.41z"/>
		<path d="M255.87,63.32v16.84h-1.18V63.32H255.87z"/>
		<path d="M273.91,64.69v3.58h4.04v0.99h-4.04v7.24c0,1.61,0.34,2.74,2.19,2.74c0.58,0,1.23-0.19,1.83-0.48l0.41,0.96
			c-0.75,0.36-1.49,0.6-2.24,0.6c-2.53,0-3.34-1.49-3.34-3.82v-7.24h-2.53v-0.99h2.53v-3.46L273.91,64.69z"/>
		<path d="M294.26,64.4c0,1.25-1.9,1.25-1.9,0C292.36,63.15,294.26,63.15,294.26,64.4z M292.7,68.23v11.93h1.18V68.23H292.7z"/>
		<path d="M310.42,68.28v2.12c0.91-1.64,2.57-2.31,4.23-2.33c3.18,0,5.36,1.95,5.36,5.24v6.86h-1.18v-6.83
			c0-2.69-1.66-4.14-4.23-4.11c-2.45,0.02-4.16,1.88-4.16,4.33v6.61h-1.18V68.28H310.42z"/>
		<path d="M344.68,67.79l0.77,0.67l-1.15,1.35c0.84,0.91,1.47,2.12,1.47,4.04c0,2.07-1.23,4.16-3.2,5.05
			c2.09,0.75,3.25,2.21,3.25,4.26c0,3.2-2.5,4.74-5.65,4.74c-3.15,0-5.63-1.73-5.63-4.74h1.18c0,2.43,2.07,3.58,4.45,3.58
			c2.38,0,4.5-1.06,4.5-3.58c0-2.55-2.29-3.56-4.5-3.56c-3.44,0-5.58-2.57-5.58-5.75c0-3.7,2.5-5.8,5.58-5.8
			c1.2,0,2.45,0.43,3.37,1.08L344.68,67.79z M335.75,73.86c0,2.45,1.68,4.57,4.4,4.57c2.45,0,4.45-2.12,4.45-4.57
			c0-3.01-2-4.62-4.45-4.62C337.73,69.24,335.75,70.75,335.75,73.86z"/>
	</g>
	<path class="st2" d="M94.18,47.09C94.18,21.08,73.1,0,47.09,0S0,21.08,0,47.09c0,14,6.11,26.56,15.8,35.18
		c2.06,1.94,3.86,3.18,4.9,3.82c0.08,0.06,0.16,0.11,0.24,0.17c0.19,0.13,0.39,0.26,0.58,0.38c0.04,0,0.08,0,0.12-0.01
		C3.45,73.77,9.52,56.96,10.56,54.47c2.87-5.73,7.53-10.24,11.48-12.22c10.73-5.36,12.36-9.48,12.36-9.48s10.39,0.19,14.58,8.82
		c-0.07-0.28-2.54-9.25-8.34-11.52c-5.89-2.3-10.08-0.98-10.96-1.08c-0.88-0.1-1.77-1.47-1.77-1.47s-1.67-1.52-1.74-2.99
		c0,0-0.78-0.93,0-1.67c0.78-0.74,2.65-1.96,3.58-4.22c0.93-2.26,1.37-3.9,4.83-4.81l4.93-0.96c0,0,0.25-2.04-0.96-4.34
		c0,0,2.33,0.05,7.84,3.48c0,0,8.08,5.08,10.4,15.03c2.32,9.94-0.23,18.8-7.07,31.16c-6.38,11.55-4.99,24.9-0.74,29.14l-0.92-0.03
		c-0.79-0.07-1.58-0.09-2.36-0.19c-1.17-0.11-2.33-0.27-3.49-0.47l-0.1-0.27l-0.28-0.82c-0.18-0.55-0.32-1.11-0.48-1.67
		c-0.12-0.57-0.27-1.14-0.37-1.71c-0.09-0.58-0.21-1.15-0.29-1.74l-0.22-1.76c-0.09-1.18-0.2-2.36-0.21-3.55
		c-0.09-2.38,0.05-4.76,0.22-7.15l0.39-3.57l0.54-3.56c0,0-4.08,14.19-1.95,25.23c-2.55-0.58-5.05-1.37-7.48-2.35
		c-0.17-0.07-0.34-0.15-0.5-0.22c1.31-2.74,1.91-5.51,2.16-7.9c0.15-1.06,0.2-2.13,0.18-3.18c-0.02-1.01-0.1-2.01-0.26-3.01
		c-0.06-0.44-0.11-0.68-0.11-0.68l0,0.03c-0.13-0.7-0.3-1.39-0.52-2.07c-0.61-1.86-1.61-3.69-3.1-5.06
		c-0.74-0.68-1.57-1.27-2.47-1.68c-0.9-0.42-1.85-0.71-2.8-0.87c-0.96-0.15-1.92-0.19-2.86-0.11c-0.94,0.09-1.89,0.22-2.74,0.62
		c0.44-0.11,0.92-0.1,1.37-0.1c0.46,0,0.92,0.03,1.37,0.08c0.9,0.1,1.79,0.26,2.63,0.54c1.7,0.52,3.2,1.45,4.33,2.7
		c1.12,1.27,1.87,2.82,2.33,4.48c0.46,1.66,0.67,3.43,0.69,5.2c0.04,1.76-0.12,3.51-0.56,5.16c-0.25,0.82-0.53,1.62-0.93,2.37
		c-0.4,0.74-0.87,1.46-1.43,2.1c-0.03,0.04-0.07,0.08-0.11,0.12c-1.75-0.87-3.46-1.85-5.11-2.97c1.22,1.46,2.66,2.73,4.22,3.83
		c0.44,0.31,0.9,0.62,1.36,0.91c0.71,0.45,1.43,0.87,2.17,1.26c2.92,1.54,6.08,2.66,9.34,3.28c0.05,0.01,0.1,0.02,0.16,0.03
		c0.63,0.12,1.26,0.22,1.89,0.31c0.96,0.13,1.92,0.22,2.88,0.27c0.82,0.06,1.65,0.05,2.48,0.05c0.83-0.03,1.65-0.05,2.47-0.13
		c0.94-0.09,1.88-0.21,2.81-0.36c7.54-0.37,22.31-8.07,26.68-17.89c5.2-11.67,4.96-24.28-0.15-30.9c-5.1-6.62,6.77-8.98,10.74,9.22
		c2.13,9.75-2.02,19.96-7.2,27.92C90.14,68.93,94.18,58.48,94.18,47.09z M38.65,11.91c0.01,0.09,0.01,0.18,0.02,0.25L35.4,12.8
		c-0.25-1.26-0.76-2.54-1.78-3.01C33.62,9.79,36.91,9.84,38.65,11.91z"/>
</g>
</svg>
